{"accessors":[{"bufferView":0,"componentType":5125,"count":89310,"name":"index","type":"SCALAR"},{"bufferView":1,"componentType":5126,"count":18512,"max":[3.938999891281128,1.9630000591278076,1.5470000505447388],"min":[-2.7170000076293945,-1.804110050201416,-1.0529999732971191],"name":"position","type":"VEC3"},{"bufferView":1,"byteOffset":12,"componentType":5126,"count":18512,"name":"texture_cooridinate","type":"VEC2"}],"asset":{"version":"2.0"},"bufferViews":[{"buffer":0,"byteLength":357240,"name":"indices"},{"buffer":0,"byteLength":370240,"byteOffset":357240,"byteStride":20,"name":"vertices"},{"buffer":1,"byteLength":1368213}],"buffers":[{"byteLength":727480,"name":"geometry","uri":"data:application/octet-stream;base64,"},{"byteLength":1368213,"name":"diffuse_texture","uri":"data:application/octet-stream;base64,"}],"extensionsUsed":["KHR_materials_unlit"],"images":[{"bufferView":2,"mimeType":"image/jpeg"}],"materials":[{"extensions":{"KHR_materials_unlit":{}},"name":"material_0","pbrMetallicRoughness":{"baseColorTexture":{"index":0}}}],"meshes":[{"primitives":[{"attributes":{"POSITION":1,"TEXCOORD_0":2},"indices":0,"material":0,"mode":4}]}],"nodes":[{"mesh":0}],"samplers":[{"wrapR":10497,"wrapS":10497,"wrapT":10497}],"scene":0,"scenes":[{"nodes":[0]}],"textures":[{"sampler":0,"source":0}]}
